<svg width="227" height="188" viewBox="0 0 227 188" fill="none" xmlns="http://www.w3.org/2000/svg">
<path d="M5.0002 42.4922L77.3335 116.043L5.0002 182.993H175.223C201.635 183.548 197.614 156.856 197.614 156.856M198.055 156.631C211.01 149.514 198.055 143.923 201.683 139.856C205.31 135.79 206.865 132.232 206.865 132.232L205.31 128.165C205.31 128.165 203.538 123.675 203.237 122.065C202.907 120.297 203.237 120.032 203.237 120.032C206.07 116.459 219.82 120.032 221.893 112.407C223.966 104.782 195.37 77.5947 192.873 75.8081C190.376 74.0216 192.009 70.2166 192.873 67.675C193.737 65.1334 198.055 55.1734 198.055 46.0429C198.055 36.9124 187.375 20.6805 169.035 12.2681C150.696 3.85569 135.081 2.71172 115.05 9.0138C95.0191 15.3159 76.8169 36.9124 76.8169 36.9124" stroke="#605DFF" stroke-width="10" stroke-linecap="round" stroke-linejoin="round"/>
</svg>
